<?xml version="1.0" encoding="utf-8"?>
<svg height="64" version="1.1" viewBox="0 0 1024 1024" width="64" xmlns="http://www.w3.org/2000/svg">
<path d="M0 0 C1.69536489 0.89654383 3.39074152 1.79306557 5.08633423 2.68917847 C18.30359109 9.67931589 31.4585861 16.77816131 44.56347656 23.97680664 C50.41175272 27.17463523 56.32327939 30.20206479 62.30810547 33.13476562 C67.66046474 35.77729558 72.83399137 38.68986564 78.01464844 41.65185547 C82.48392428 44.19067357 87.00986384 46.55097837 91.625 48.8125 C97.88109745 51.88588678 104.01594042 55.14415511 110.125 58.5 C118.77331511 63.24922314 127.44735706 67.94720589 136.14910889 72.59765625 C137.50298855 73.32151993 138.85638636 74.04628559 140.20928955 74.77197266 C142.11092857 75.79175425 144.01419989 76.80842002 145.91796875 77.82421875 C147.01906982 78.41291748 148.1201709 79.00161621 149.25463867 79.6081543 C151.98340595 81.07609768 151.98340595 81.07609768 155 82 C156.86837063 83.03731937 158.71952498 84.10570365 160.5625 85.1875 C167.42321616 89.16463242 174.38825161 92.93709341 181.375 96.6875 C183.03547363 97.57997437 183.03547363 97.57997437 184.72949219 98.49047852 C189.2987798 100.94478059 193.86947935 103.39636126 198.44482422 105.83935547 C201.73630836 107.59705439 205.02455434 109.36069331 208.3125 111.125 C209.81466064 111.92296997 209.81466064 111.92296997 211.34716797 112.73706055 C224.56110136 119.84128902 230.50855566 129.36297883 237.046875 142.66796875 C237.58475647 143.74701981 238.12263794 144.82607086 238.67681885 145.93782043 C240.37544476 149.35068248 242.06263775 152.76905769 243.75 156.1875 C244.89643841 158.49188335 246.04356792 160.79592302 247.19140625 163.09960938 C248.28968498 165.30958659 249.38736222 167.51986285 250.484375 169.73046875 C250.99377625 170.75665817 251.50317749 171.7828476 252.02801514 172.84013367 C260.20786365 189.41961433 260.20786365 189.41961433 259 197 C254.82505796 205.87175184 245.04776474 210.2725939 236.6875 214.5 C234.83031799 215.45362675 232.97354315 216.4080469 231.1171875 217.36328125 C230.23514648 217.81525879 229.35310547 218.26723633 228.44433594 218.73291016 C224.53455463 220.75965456 220.69545429 222.9044876 216.86328125 225.07421875 C215 226 215 226 213 226 C213.00460896 227.04214346 213.00921793 228.08428692 213.01396656 229.15801048 C213.12502847 254.53087678 213.20715918 279.9037115 213.25906086 305.27676964 C213.28482811 317.54706849 213.31995064 329.81720664 213.37719727 342.08740234 C213.42707718 352.7837334 213.45930176 363.47994806 213.47044247 374.1763922 C213.47695338 379.8386518 213.49222555 385.50057842 213.52865028 391.16273117 C213.56268196 396.49628725 213.57303834 401.82937437 213.56553841 407.16302872 C213.56690973 409.11649884 213.5767992 411.06998524 213.59602737 413.02336121 C213.7810504 432.79578541 213.7810504 432.79578541 208 440 C201.21723434 446.29516389 192.32113849 450.10519838 184.13671875 454.26928711 C183.24597656 454.72311768 182.35523438 455.17694824 181.4375 455.64453125 C180.22900391 456.25325073 180.22900391 456.25325073 178.99609375 456.87426758 C176.85946677 457.96149538 176.85946677 457.96149538 175 460 C172.88867369 461.10433927 170.77131404 462.15521226 168.625 463.1875 C160.86593862 466.9953723 153.23706808 471.03248191 145.625 475.125 C145.02868774 475.44555359 144.43237549 475.76610718 143.81799316 476.09637451 C140.75860113 477.74174373 137.70027765 479.38908556 134.64257812 481.03759766 C131.11322621 482.9399809 127.58031534 484.83568899 124.046875 486.73046875 C113.46620318 492.40853786 102.90257043 498.1109928 92.42724609 503.98168945 C87.28979009 506.85943736 87.28979009 506.85943736 84.6484375 508.140625 C82.80107422 508.99883533 82.80107422 508.99883533 81 511 C78.63118547 512.24635748 76.25841243 513.44112612 73.8515625 514.609375 C65.60852306 518.67050211 57.4813812 522.92386894 49.375 527.25 C47.96795383 527.99913794 46.56088975 528.74824223 45.15380859 529.49731445 C35.56648406 534.60646077 26.01695574 539.78228155 16.48828125 545 C10.52850392 548.26186735 4.55771589 551.50320784 -1.41998291 554.73208618 C-3.15184718 555.66822822 -4.88233521 556.60691488 -6.61279297 557.5456543 C-7.66225098 558.11195557 -8.71170898 558.67825684 -9.79296875 559.26171875 C-10.7264917 559.76662842 -11.66001465 560.27153809 -12.62182617 560.79174805 C-16.50922205 562.76677343 -19.67951206 563.23998475 -24 563.375 C-25.051875 563.42398438 -26.10375 563.47296875 -27.1875 563.5234375 C-37.5128083 562.10582345 -47.34974332 555.28805037 -56.47729492 550.42675781 C-58.66441551 549.26229065 -60.85442358 548.10341087 -63.04492188 546.9453125 C-70.85053736 542.80790646 -78.59236567 538.57382787 -86.28022766 534.22160339 C-92.42980532 530.74351379 -98.64349268 527.39142916 -104.875 524.0625 C-113.03398972 519.68721095 -121.16542083 515.27178949 -129.24487305 510.75146484 C-135.36043196 507.33693868 -141.52157569 504.01003242 -147.6875 500.6875 C-155.66238892 496.38943997 -163.57138752 491.99375914 -171.4375 487.5 C-180.42249276 482.37585477 -189.53330445 477.54371699 -198.72753906 472.80688477 C-208.30819577 467.86532209 -217.76987211 462.72291014 -227.21484375 457.52783203 C-230.19123728 455.89509442 -233.17305039 454.27261041 -236.15625 452.65234375 C-237.66989136 451.82972046 -237.66989136 451.82972046 -239.21411133 450.99047852 C-241.15359282 449.93673444 -243.09351388 448.88379889 -245.03393555 447.83178711 C-245.9031665 447.35878174 -246.77239746 446.88577637 -247.66796875 446.3984375 C-248.43391357 445.98255371 -249.1998584 445.56666992 -249.98901367 445.13818359 C-251.70419817 444.16741874 -253.36015525 443.09322983 -255 442 C-255 441.34 -255 440.68 -255 440 C-255.66 440 -256.32 440 -257 440 C-261.03176683 433.23703629 -262.1482225 428.76533868 -262.15821838 420.81231689 C-262.16315636 419.97993807 -262.16809434 419.14755924 -262.17318195 418.28995681 C-262.18855668 415.49701749 -262.19691753 412.70410116 -262.20532227 409.91113281 C-262.21490081 407.91056618 -262.22491087 405.91000157 -262.23532104 403.90943909 C-262.26237876 398.47391183 -262.28338366 393.03837589 -262.30332303 387.60281849 C-262.32517721 381.92397792 -262.35256869 376.24516416 -262.37937927 370.56634521 C-262.42931382 359.81066382 -262.47424984 349.05496755 -262.51740164 338.29925704 C-262.56676748 326.05512317 -262.62168804 313.81101621 -262.67708123 301.56690836 C-262.79091299 276.377964 -262.89774945 251.18899384 -263 226 C-264.4082605 225.3040271 -264.4082605 225.3040271 -265.8449707 224.59399414 C-267.10112509 223.9703173 -268.35722574 223.34653221 -269.61328125 222.72265625 C-270.53711609 222.26663025 -270.53711609 222.26663025 -271.47961426 221.8013916 C-276.48940536 219.30886794 -281.31339407 216.5609627 -286.11328125 213.68359375 C-288.98546427 212.00847754 -291.9121776 210.50740087 -294.875 209 C-300.58919772 205.91994834 -304.91172957 202.26481128 -307 196 C-308.26691309 184.38662997 -300.9633432 173.67962678 -295.6875 163.75 C-294.53284087 161.55522029 -293.379194 159.35990774 -292.2265625 157.1640625 C-291.39560059 155.58286621 -291.39560059 155.58286621 -290.54785156 153.96972656 C-288.50264337 150.0457656 -286.5230867 146.09173425 -284.5625 142.125 C-274.94695469 122.80245046 -265.19526301 115.81532863 -246.6640625 105.5859375 C-243.69012261 103.94221793 -240.72616945 102.28307589 -237.7734375 100.6015625 C-231.70600425 97.14698345 -225.64336613 93.76957076 -219.375 90.6875 C-212.4985565 87.30348445 -205.78899838 83.64782621 -199.07080078 79.96118164 C-191.48825755 75.8030744 -183.87626912 71.70228012 -176.25 67.625 C-173.86192118 66.34776464 -171.47391648 65.07039076 -169.0859375 63.79296875 C-168.49447937 63.47660965 -167.90302124 63.16025055 -167.29364014 62.83430481 C-161.14824147 59.54622935 -155.01097066 56.24312655 -148.875 52.9375 C-147.80475586 52.36112793 -146.73451172 51.78475586 -145.63183594 51.19091797 C-140.34915943 48.34535664 -135.06802875 45.49696984 -129.7890625 42.64453125 C-118.20848246 36.39166852 -106.60207553 30.19179517 -94.96496582 24.04498291 C-68.56900293 10.10706405 -68.56900293 10.10706405 -42.58203125 -4.57421875 C-40 -6 -40 -6 -37 -7 C-35.8553125 -7.495 -35.8553125 -7.495 -34.6875 -8 C-21.8587767 -12.77347844 -11.13361969 -5.93872604 0 0 Z M-29.54296875 52.30859375 C-30.4438623 52.80391602 -31.34475586 53.29923828 -32.27294922 53.80957031 C-33.23475098 54.34678711 -34.19655273 54.88400391 -35.1875 55.4375 C-36.17766113 55.98374023 -37.16782227 56.52998047 -38.18798828 57.09277344 C-43.29283525 59.91476388 -48.37619191 62.77333115 -53.44750977 65.6550293 C-58.98039566 68.798157 -64.53568292 71.81989797 -70.25 74.625 C-80.74559331 79.78026623 -91.00166868 85.39219846 -101.29580688 90.93473816 C-105.75885115 93.33642723 -110.22885051 95.72477256 -114.703125 98.10546875 C-115.33817459 98.44339447 -115.97322418 98.78132019 -116.6275177 99.12948608 C-117.90609455 99.80977791 -119.1846844 100.49004532 -120.46328735 101.17028809 C-130.69161416 106.61272522 -140.88926169 112.10599385 -151.0456543 117.68188477 C-158.86396132 121.95918793 -166.76004676 126.08226526 -174.67944336 130.16894531 C-175.59346924 130.64170898 -176.50749512 131.11447266 -177.44921875 131.6015625 C-178.25705811 132.01744629 -179.06489746 132.43333008 -179.8972168 132.86181641 C-182.19689531 134.06499703 -182.19689531 134.06499703 -185 136 C-187.33869708 137.24320213 -189.68551597 138.46873721 -192.0390625 139.68359375 C-194.31310908 140.92032249 -194.31310908 140.92032249 -195 144 C-175.16304662 154.85577424 -155.3229025 165.71017008 -135.25 176.125 C-126.98822378 180.41183725 -118.79276988 184.80469378 -110.63330078 189.28295898 C-102.38750856 193.80458496 -94.09443 198.23556713 -85.79763794 202.66253662 C-78.90338804 206.343362 -72.03671154 210.06122866 -65.25 213.9375 C-59.62354447 217.14850954 -53.91547221 220.13344902 -48.08496094 222.95800781 C-44.47188331 224.71749672 -40.96405802 226.57288321 -37.49609375 228.60546875 C-36.74513428 229.03537109 -35.9941748 229.46527344 -35.22045898 229.90820312 C-33.7780174 230.73925248 -32.34801541 231.59241918 -30.93383789 232.47070312 C-27.04594458 234.68067354 -25.64561045 235.1537478 -21.12890625 234.078125 C-19.73370948 233.42430681 -18.35794377 232.72803913 -17 232 C-16.23413574 231.60594971 -15.46827148 231.21189941 -14.67919922 230.8059082 C-12.07551251 229.43029287 -9.50609203 228.00252444 -6.9375 226.5625 C0.90368844 222.22207936 8.7887175 217.99099174 16.75 213.875 C24.34059859 209.94346245 31.85055889 205.90112095 39.30273438 201.71386719 C44.89958678 198.58092795 50.55951338 195.58403202 56.25 192.625 C63.35520599 188.92928036 70.41567137 185.16430486 77.4375 181.3125 C86.89658323 176.12421168 96.40705922 171.03755324 105.93240356 165.97244263 C115.32236078 160.9780635 124.68308683 155.93453552 134 150.8046875 C138.94811027 148.08715392 143.93432106 145.49208113 149 143 C146.25929754 140.25929754 142.94987427 138.91540234 139.5 137.25 C134.01550083 134.55866267 128.70423467 131.75161281 123.51245117 128.52197266 C115.63192111 123.74816793 107.36756359 119.60594374 99.1875 115.375 C85.14821974 108.07894178 71.19168822 100.61972217 57.5 92.6875 C53.22838577 90.22426963 48.92475323 87.92585153 44.5 85.75 C31.91546041 79.55693266 19.63267136 72.72083084 7.5 65.6875 C1.84014041 62.42037147 -3.92369987 59.48274366 -9.7890625 56.609375 C-13.35439741 54.82237016 -16.80350457 52.88548772 -20.23046875 50.84765625 C-23.9382781 49.07150916 -26.2214807 50.46864711 -29.54296875 52.30859375 Z M158.0625 252.375 C157.26392578 252.76816406 156.46535156 253.16132813 155.64257812 253.56640625 C149.53974833 256.61079564 143.57346853 259.87584618 137.61889648 263.19775391 C136.78789177 263.66043167 135.95688705 264.12310944 135.10070038 264.59980774 C133.06669677 265.73242414 131.03314313 266.86583992 129 268 C128.99668985 268.59561234 128.99337971 269.19122467 128.98996925 269.80488586 C128.90862929 284.32007773 128.81650106 298.83517366 128.71247292 313.35021973 C128.66242315 320.36968829 128.6159796 327.38914561 128.578125 334.40869141 C128.54157491 341.18443634 128.49484372 347.96005056 128.44193649 354.73568726 C128.42342106 357.31918144 128.40830262 359.9027023 128.39665604 362.48623657 C128.37974512 366.10814133 128.35069752 369.72976252 128.31884766 373.3515625 C128.31560738 374.9494738 128.31560738 374.9494738 128.31230164 376.57966614 C128.24735786 382.3707353 127.86802909 387.49235647 126 393 C123.4375 394.4375 123.4375 394.4375 121 395 C120.67 395.33 120.34 395.66 120 396 C113.00326686 396.78995374 109.17918456 395.43023383 103.1953125 391.8671875 C99.31851192 389.60177102 95.33702495 387.61215641 91.3125 385.625 C90.59247803 385.26728516 89.87245605 384.90957031 89.13061523 384.54101562 C87.42136745 383.69208026 85.71082479 382.84575278 84 382 C83.68361572 382.56283691 83.36723145 383.12567383 83.04125977 383.70556641 C72.40425638 402.58629552 72.40425638 402.58629552 67.125 411.125 C66.46757813 412.20007813 65.81015625 413.27515625 65.1328125 414.3828125 C62.21214229 417.96678511 59.25482069 419.76304019 54.62109375 420.25 C50.61204074 419.79100288 48.40119412 419.29022553 45.0625 416.875 C40.84754569 410.99960914 40.69915815 404.72082811 40.68115234 397.76000977 C40.67110672 396.86165909 40.6610611 395.96330841 40.65071106 395.03773499 C40.61999208 392.08896483 40.60287538 389.14028501 40.5859375 386.19140625 C40.56721677 384.13874033 40.54764269 382.08608202 40.5272522 380.03343201 C40.47602064 374.64621483 40.43634688 369.25897272 40.39910889 363.87164307 C40.35901293 358.36814249 40.30794611 352.8647448 40.2578125 347.36132812 C40.16115949 336.57429112 40.07672075 325.7871959 40 315 C38.11834311 315.93581913 36.23727455 316.87282128 34.35644531 317.81030273 C32.78506805 318.5927964 32.78506805 318.5927964 31.1819458 319.39109802 C26.31755873 321.85070056 21.53115387 324.44569615 16.75 327.0625 C15.821875 327.56587891 14.89375 328.06925781 13.9375 328.58789062 C13.02484375 329.08611328 12.1121875 329.58433594 11.171875 330.09765625 C10.3684668 330.53601807 9.56505859 330.97437988 8.73730469 331.42602539 C7.83399414 331.94543701 6.93068359 332.46484863 6 333 C5.34482265 333.23041803 4.68964531 333.46083607 4.01461411 333.69823647 C1.39523341 334.83478364 -0.11911438 335.82981731 -2 338 C-3.22391313 343.17529923 -3.01089969 348.34129537 -2.90820312 353.62231445 C-2.90594587 355.23879382 -2.9072145 356.85528138 -2.91174316 358.47175598 C-2.91403842 362.856337 -2.86701159 367.23916685 -2.8111515 371.62334085 C-2.76113636 376.20633832 -2.75644137 380.78937609 -2.74694824 385.37260437 C-2.72208429 394.04973704 -2.65643723 402.72606324 -2.57615232 411.40284079 C-2.48672894 421.28173568 -2.44274623 431.16066912 -2.40258884 441.039868 C-2.31897069 461.3603621 -2.17825975 481.68013025 -2 502 C2.15998458 500.65294346 5.87961671 499.13703676 9.7265625 497.05078125 C10.82653564 496.45765137 11.92650879 495.86452148 13.05981445 495.25341797 C14.24826121 494.60654006 15.43665496 493.95956476 16.625 493.3125 C17.86977886 492.63901055 19.11481954 491.96600482 20.36010742 491.29345703 C22.29505949 490.24822808 24.22974987 489.20253602 26.16343689 488.15496826 C30.5201485 485.79511248 34.8868607 483.45493126 39.26171875 481.12890625 C51.18837055 474.78318515 63.03463031 468.33022497 74.76855469 461.63452148 C81.81532569 457.628878 88.95195398 453.82857289 96.14697266 450.09716797 C109.68451481 443.06909126 123.03728883 435.70332993 136.29272461 428.15844727 C140.91318243 425.55263051 145.61555298 423.15339483 150.375 420.8125 C161.11143505 416.43165788 161.11143505 416.43165788 169 409 C169.09614394 407.00348281 169.12630839 405.00368297 169.12698364 403.00485229 C169.12980347 401.72629868 169.13262329 400.44774506 169.13552856 399.13044739 C169.13358401 397.70529161 169.13153583 396.28013597 169.12939453 394.85498047 C169.13074899 393.36029518 169.13252917 391.86561022 169.13470459 390.3709259 C169.13927599 386.30244684 169.13748993 382.23399304 169.1343255 378.16551352 C169.13179759 373.90779647 169.13414091 369.65008163 169.13571167 365.3923645 C169.13753329 358.23487967 169.1351285 351.07740514 169.13037109 343.91992188 C169.12494094 335.65508916 169.12668207 327.39028116 169.1321975 319.12544906 C169.13674374 312.02810037 169.1373714 304.9307591 169.13475883 297.83340943 C169.13320277 293.59549755 169.13298365 289.35759725 169.13629532 285.11968613 C169.13919553 281.12901092 169.13715895 277.13836735 169.13140106 273.14769554 C169.13008443 271.68685267 169.13044884 270.22600711 169.13266373 268.76516533 C169.14230149 261.7595086 169.11074364 254.92624701 168 248 C164.79399074 248 160.8714922 250.97155125 158.0625 252.375 Z M-214 251 C-215.296371 252.07204691 -215.296371 252.07204691 -215.12304783 254.60620975 C-215.12212604 255.77780864 -215.12120424 256.94940752 -215.12025452 258.1565094 C-215.12110894 258.80664865 -215.12196337 259.4567879 -215.12284368 260.12662834 C-215.12450026 262.3208558 -215.11897425 264.51500802 -215.11352539 266.70922852 C-215.11324353 268.27585854 -215.11340123 269.8424887 -215.1139679 271.40911865 C-215.11425592 275.67546377 -215.10835843 279.94178102 -215.10139394 284.20811963 C-215.09516118 288.66177051 -215.09455666 293.11542197 -215.09336853 297.56907654 C-215.09025498 306.00867443 -215.08204128 314.44825944 -215.07201904 322.88785166 C-215.06085863 332.49349444 -215.05534764 342.09913782 -215.05032361 351.70478547 C-215.03985868 371.46986418 -215.02225879 391.23493128 -215 411 C-211.49274871 412.91498276 -207.98517169 414.82936816 -204.47753906 416.74365234 C-203.49226227 417.28162949 -202.50698547 417.81960663 -201.49185181 418.37388611 C-193.93275717 422.49869094 -186.34992716 426.57589561 -178.75 430.625 C-170.40048241 435.08251195 -162.08040435 439.58502183 -153.82348633 444.2121582 C-145.97292109 448.59963978 -138.04439647 452.84231695 -130.11865234 457.09204102 C-124.77878113 459.95680866 -119.45311342 462.84153678 -114.16186523 465.79516602 C-99.71547467 473.84631649 -85.12179643 481.6297081 -70.51879883 489.3918457 C-69.90969162 489.71580826 -69.30058441 490.03977081 -68.67301941 490.37355042 C-66.90156366 491.31557959 -65.12974091 492.25691854 -63.35791016 493.19824219 C-59.24560489 495.40478667 -55.166914 497.66940311 -51.09838867 499.95556641 C-49.09224473 501.14852933 -49.09224473 501.14852933 -47 501 C-46.97647398 483.69957246 -46.95892527 466.39915002 -46.94818783 449.09871006 C-46.94306622 441.06295291 -46.936104 433.02720578 -46.92456055 424.99145508 C-46.9144856 417.97453473 -46.90811665 410.95762165 -46.90591151 403.94069427 C-46.90462577 400.23708597 -46.90167971 396.53349845 -46.89426994 392.82989693 C-46.87913071 384.79180844 -46.8942601 376.75511512 -46.96820068 368.71722031 C-46.98942396 366.23629964 -47.00288531 363.75530059 -47.00863647 361.27429581 C-47.02291449 357.79200306 -47.07577737 354.31248677 -47.14038086 350.83081055 C-47.13768771 349.29640619 -47.13768771 349.29640619 -47.13494015 347.73100376 C-47.26076537 343.13774499 -47.35739249 340.00813904 -50.74612427 336.68971252 C-54.0072144 334.38788529 -54.0072144 334.38788529 -57.58569336 332.77441406 C-58.57326126 332.4008075 -58.57326126 332.4008075 -59.58078003 332.01965332 C-60.59266891 331.63867493 -60.59266891 331.63867493 -61.625 331.25 C-63.00553718 330.64065436 -64.38128193 330.02034341 -65.75219727 329.38964844 C-68.51329343 328.12820373 -71.28796971 326.91351447 -74.08349609 325.73046875 C-79.6184839 323.3436763 -84.7560051 320.31490398 -89.9375 317.25 C-98.31374598 312.44051772 -106.81571935 307.92872969 -115.40087891 303.50537109 C-121.96065722 300.10863969 -128.40431947 296.54879535 -134.8125 292.875 C-146.12721938 286.38957537 -157.64531465 280.3099091 -169.20043945 274.26708984 C-175.87979267 270.76630871 -182.46042121 267.20785811 -188.8918457 263.26245117 C-191.9149529 261.45208785 -195.01747045 259.91441596 -198.1875 258.375 C-201.94171849 256.53261421 -205.6491466 254.68993531 -209.25 252.5625 C-211.76266965 250.8353302 -211.76266965 250.8353302 -214 251 Z " fill="#128CEB" transform="translate(536,247)"/>
</svg>